<svg width="51" height="47" viewBox="0 0 51 47" fill="none" xmlns="http://www.w3.org/2000/svg">
<path d="M38.4997 46.2134C35.7697 43.5002 32.5144 41.5558 28.7353 40.3131C36.4799 41.2473 43.7793 40.0568 50.6442 36.685C51.1988 36.4123 51.0771 35.6167 50.467 35.5005C47.2549 34.8851 44.0073 34.7659 40.7289 34.9969C36.842 35.271 33.1307 36.2634 29.4594 37.5581C38.5489 31.9618 45.1288 24.4165 49.2392 14.9194C49.4934 14.3323 48.8355 13.7631 48.2609 14.0701C38.4195 19.3148 31.1541 26.9495 26.4429 36.9562C26.9775 34.4396 27.6122 31.9394 28.0205 29.405C28.4349 26.8347 28.7631 24.2377 28.8786 21.6407C28.9942 19.0436 28.9264 16.4227 28.7045 13.8302C28.4842 11.2406 28.0775 8.65547 27.5629 6.10313C27.1793 4.19595 26.6632 2.31559 26.0855 0.439704C25.9037 -0.14735 25.0456 -0.14884 24.8592 0.435234C21.0138 12.5264 20.9399 24.6892 24.4401 36.977C19.672 26.8988 12.3418 19.2194 2.388 13.9538C1.8642 13.6767 1.26953 14.1863 1.48983 14.7212C3.35088 19.2239 5.92368 23.3273 9.09731 27.097C12.6407 31.3077 16.9051 34.7287 21.6193 37.6922C14.7667 34.9581 7.76007 34.231 0.583958 35.4781C-0.0862007 35.5943 -0.217152 36.4764 0.391384 36.7714C7.17464 40.0658 14.3893 41.2324 22.0599 40.3086C18.2777 41.5885 14.9701 43.5523 12.1631 46.2879C11.8642 46.58 12.14 47.0717 12.556 46.9853C17.2517 46.0034 21.2696 43.7714 24.7714 40.334V46.0406H26.0701V40.3414C29.5133 43.7103 33.4711 45.9408 38.0791 46.9406C38.5151 47.0344 38.8139 46.5189 38.5027 46.2105L38.4997 46.2134Z" fill="white"/>
</svg>
